<svg width="15" height="15" viewBox="0 0 15 15" fill="none" xmlns="http://www.w3.org/2000/svg">
<circle cx="7.5" cy="7.5" r="7.5" fill="#F87171"/>
<path d="M7.86133 9.38086V3.46875H9.61328V9.38086C9.61328 9.95117 9.48828 10.4414 9.23828 10.8516C8.98828 11.2578 8.64648 11.5703 8.21289 11.7891C7.7832 12.0078 7.29883 12.1172 6.75977 12.1172C6.20117 12.1172 5.70703 12.0234 5.27734 11.8359C4.84766 11.6484 4.50977 11.3613 4.26367 10.9746C4.01758 10.584 3.89453 10.0898 3.89453 9.49219H5.6582C5.6582 9.80469 5.70117 10.0527 5.78711 10.2363C5.87695 10.4199 6.00391 10.5508 6.16797 10.6289C6.33203 10.707 6.5293 10.7461 6.75977 10.7461C6.98242 10.7461 7.17578 10.6934 7.33984 10.5879C7.50391 10.4824 7.63086 10.3281 7.7207 10.125C7.81445 9.92188 7.86133 9.67383 7.86133 9.38086Z" fill="white"/>
</svg>
